<svg width="30" height="26" viewBox="0 0 30 26" fill="none" xmlns="http://www.w3.org/2000/svg">
<path d="M21.1553 5.38209C21.8395 6.70284 22.2927 8.38521 21.7538 9.85114C21.1468 11.4976 19.5639 12.185 18.0075 12.4296C18.0075 16.5007 23.7214 16.13 24.7993 11.5517C26.0652 6.20513 21.232 1.43797 16.3564 0.713867C16.7248 0.903966 17.0838 1.11178 17.4347 1.33817C18.9311 2.32409 20.2913 3.75372 21.1553 5.38209Z" fill="white"/>
<path d="M24.9792 7.7522C25.3304 9.02845 25.3557 10.3397 25.0477 11.6151C24.7911 12.7103 24.2436 13.6867 23.4562 14.3927C29.5129 17.2152 29.2563 4.14248 21.3862 2.62256C23.0462 3.89838 24.4146 5.67148 24.9792 7.7522Z" fill="white"/>
<path d="M13.7466 9.94139C3.24274 6.1783 4.26061 23.9283 19.0848 23.295C13.1828 21.2596 7.4766 15.4694 13.7466 9.94139Z" fill="white"/>
<mask id="mask0_169_68" style="mask-type:luminance" maskUnits="userSpaceOnUse" x="0" y="1" width="20" height="25">
<path d="M0 1.66003H19.2665V26H0V1.66003Z" fill="white"/>
</mask>
<g mask="url(#mask0_169_68)">
<path d="M14.1078 5.28277C16.5963 6.92021 17.8622 9.84212 14.7491 12.3212C20.8991 13.2073 20.0265 7.30862 16.2116 3.9348C5.88686 -5.21154 -10.5105 15.8497 9.34313 26.0001C-6.80696 14.1211 5.3051 -0.489749 14.1078 5.28277Z" fill="white"/>
</g>
<mask id="mask1_169_68" style="mask-type:luminance" maskUnits="userSpaceOnUse" x="2" y="4" width="28" height="22">
<path d="M2.39551 4.97803H30V25.9926H2.39551V4.97803Z" fill="white"/>
</mask>
<g mask="url(#mask1_169_68)">
<path d="M14.7057 9.91458C13.6618 5.25544 9.64167 4.01591 6.50238 5.77129C0.694192 9.02846 1.56683 16.2289 6.20294 21.1321C13.3109 28.6592 23.2852 26.7236 29.9999 19.6213C2.72178 35.6073 0.625654 1.58221 14.7057 9.91415" fill="white"/>
</g>
<path d="M16.3741 3.72646C17.5029 4.72145 18.5032 6.05171 19.0593 7.49905C19.4872 8.62971 19.7096 10.0408 19.1025 11.1541C18.8712 11.5793 18.5546 11.896 18.1875 12.1306C27.7587 10.3488 15.92 -5.85409 6.81055 2.26097C7.66605 1.87213 8.57255 1.60945 9.50474 1.48286C12.0366 1.1571 14.4321 1.99872 16.3741 3.72646Z" fill="white"/>
</svg>
