<svg xmlns="http://www.w3.org/2000/svg" xmlns:xlink="http://www.w3.org/1999/xlink" width="500" zoomAndPan="magnify" viewBox="0 0 375 374.999991" height="500" preserveAspectRatio="xMidYMid meet" version="1.0"><defs><clipPath id="af2854bcd1"><path d="M 44.0625 68 L 228.539062 68 L 228.539062 288.066406 L 44.0625 288.066406 Z M 44.0625 68 " clip-rule="nonzero"/></clipPath><clipPath id="73136630cc"><path d="M 67 98 L 331.3125 98 L 331.3125 288 L 67 288 Z M 67 98 " clip-rule="nonzero"/></clipPath></defs><path fill="#ffffff" d="M 246.625 101.652344 C 253.175781 113.59375 257.515625 128.804688 252.355469 142.058594 C 246.542969 156.945312 231.386719 163.160156 216.484375 165.371094 C 216.484375 202.179688 271.195312 198.828125 281.515625 157.433594 C 293.636719 109.09375 247.359375 65.992188 200.675781 59.445312 C 204.203125 61.164062 207.640625 63.042969 211 65.089844 C 225.328125 74.003906 238.351562 86.929688 246.625 101.652344 " fill-opacity="1" fill-rule="nonzero"/><path fill="#ffffff" d="M 283.234375 123.082031 C 286.597656 134.621094 286.839844 146.476562 283.890625 158.007812 C 281.433594 167.910156 276.191406 176.738281 268.652344 183.121094 C 326.644531 208.640625 324.1875 90.445312 248.832031 76.703125 C 264.726562 88.238281 277.828125 104.269531 283.234375 123.082031 " fill-opacity="1" fill-rule="nonzero"/><path fill="#ffffff" d="M 175.691406 142.875 C 75.117188 108.851562 84.863281 269.335938 226.804688 263.609375 C 170.292969 245.207031 115.65625 192.855469 175.691406 142.875 " fill-opacity="1" fill-rule="nonzero"/><g clip-path="url(#af2854bcd1)"><path fill="#ffffff" d="M 179.140625 100.753906 C 202.96875 115.558594 215.089844 141.976562 185.28125 164.390625 C 244.167969 172.402344 235.8125 119.070312 199.285156 88.566406 C 100.425781 5.871094 -56.578125 196.292969 133.519531 288.066406 C -21.117188 180.664062 94.855469 48.5625 179.140625 100.753906 " fill-opacity="1" fill-rule="nonzero"/></g><g clip-path="url(#73136630cc)"><path fill="#ffffff" d="M 184.871094 142.632812 C 174.875 100.507812 136.382812 89.300781 106.324219 105.171875 C 50.710938 134.621094 59.066406 199.722656 103.457031 244.054688 C 171.515625 312.109375 267.019531 294.609375 331.3125 230.394531 C 70.125 374.929688 50.054688 67.296875 184.871094 142.628906 " fill-opacity="1" fill-rule="nonzero"/></g><path fill="#ffffff" d="M 200.84375 86.683594 C 211.652344 95.679688 221.230469 107.707031 226.554688 120.792969 C 230.652344 131.015625 232.78125 143.773438 226.96875 153.839844 C 224.753906 157.683594 221.722656 160.546875 218.207031 162.667969 C 309.851562 146.558594 196.496094 0.0625 109.273438 73.433594 C 117.464844 69.917969 126.144531 67.542969 135.070312 66.398438 C 159.3125 63.453125 182.25 71.0625 200.84375 86.683594 " fill-opacity="1" fill-rule="nonzero"/></svg>